                             Swedish Hardsub

 
http://www.imdb.com/title/tt1790869/

General
Complete name                       : In.Their.Skin.2012.DVDRip.Swesub.Xvid.avi
Format                              : AVI
Format/Info                         : Audio Video Interleave
File size                           : 700 MiB
Duration                            : 1h 32mn

Video
ID                                  : 0
Format                              : MPEG-4 Visual
Format profile                      : Advanced Simple@L5
Format settings, BVOP               : 2
Format settings, QPel               : No
Format settings, GMC                : No warppoints
Format settings, Matrix             : Default (H.263)
Codec ID                            : XVID
Codec ID/Hint                       : XviD
Duration                            : 1h 32mn
Bit rate                            : 924 Kbps
Width                               : 720 pixels
Height                              : 304 pixels
Display aspect ratio                : 2.35:1
Frame rate                          : 25.000 fps
Color space                         : YUV
Chroma subsampling                  : 4:2:0
Bit depth                           : 8 bits
Scan type                           : Progressive
Compression mode                    : Lossy
Bits/(Pixel*Frame)                  : 0.169
Stream size                         : 611 MiB (87%)
Writing library                     : XviD 73

Audio
ID                                  : 1
Format                              : MPEG Audio
Format version                      : Version 1
Format profile                      : Layer 3
Codec ID                            : 55
Codec ID/Hint                       : MP3
Duration                            : 1h 32mn
Bit rate mode                       : Variable
Bit rate                            : 122 Kbps
Minimum bit rate                    : 32.0 Kbps
Channel(s)                          : 2 channels
Sampling rate                       : 48.0 KHz
Compression mode                    : Lossy
Stream size                         : 80.7 MiB (12%)
Alignment                           : Aligned on interleaves
Interleave, duration                : 24 ms (0.60 video frame)
Interleave, preload duration        : 169 ms
Writing library                     : LAME3.99r
Encoding settings                   : -m s -V 5 -q 0 -lowpass 17 --vbr-new -b 32

